%TF.GenerationSoftware,KiCad,Pcbnew,10.0.5*%
%TF.CreationDate,2026-08-08T16:42:56+05:30*%
%TF.ProjectId,p2,70322e6b-6963-4616-945f-706362585858,rev?*%
%TF.SameCoordinates,Original*%
%TF.FileFunction,Legend,Top*%
%TF.FilePolarity,Positive*%
%FSLAX46Y46*%
G04 Gerber Fmt 4.6, Leading zero omitted, Abs format (unit mm)*
G04 Created by KiCad (PCBNEW 10.0.5) date 2026-08-08 16:42:56*
%MOMM*%
%LPD*%
G01*
G04 APERTURE LIST*
%ADD10C,0.150000*%
%ADD11C,0.120000*%
G04 APERTURE END LIST*
D10*
X127833333Y-102179580D02*
X127785714Y-102227200D01*
X127785714Y-102227200D02*
X127642857Y-102274819D01*
X127642857Y-102274819D02*
X127547619Y-102274819D01*
X127547619Y-102274819D02*
X127404762Y-102227200D01*
X127404762Y-102227200D02*
X127309524Y-102131961D01*
X127309524Y-102131961D02*
X127261905Y-102036723D01*
X127261905Y-102036723D02*
X127214286Y-101846247D01*
X127214286Y-101846247D02*
X127214286Y-101703390D01*
X127214286Y-101703390D02*
X127261905Y-101512914D01*
X127261905Y-101512914D02*
X127309524Y-101417676D01*
X127309524Y-101417676D02*
X127404762Y-101322438D01*
X127404762Y-101322438D02*
X127547619Y-101274819D01*
X127547619Y-101274819D02*
X127642857Y-101274819D01*
X127642857Y-101274819D02*
X127785714Y-101322438D01*
X127785714Y-101322438D02*
X127833333Y-101370057D01*
X128214286Y-101370057D02*
X128261905Y-101322438D01*
X128261905Y-101322438D02*
X128357143Y-101274819D01*
X128357143Y-101274819D02*
X128595238Y-101274819D01*
X128595238Y-101274819D02*
X128690476Y-101322438D01*
X128690476Y-101322438D02*
X128738095Y-101370057D01*
X128738095Y-101370057D02*
X128785714Y-101465295D01*
X128785714Y-101465295D02*
X128785714Y-101560533D01*
X128785714Y-101560533D02*
X128738095Y-101703390D01*
X128738095Y-101703390D02*
X128166667Y-102274819D01*
X128166667Y-102274819D02*
X128785714Y-102274819D01*
X123238095Y-101354819D02*
X123238095Y-102164342D01*
X123238095Y-102164342D02*
X123285714Y-102259580D01*
X123285714Y-102259580D02*
X123333333Y-102307200D01*
X123333333Y-102307200D02*
X123428571Y-102354819D01*
X123428571Y-102354819D02*
X123619047Y-102354819D01*
X123619047Y-102354819D02*
X123714285Y-102307200D01*
X123714285Y-102307200D02*
X123761904Y-102259580D01*
X123761904Y-102259580D02*
X123809523Y-102164342D01*
X123809523Y-102164342D02*
X123809523Y-101354819D01*
X124809523Y-102354819D02*
X124238095Y-102354819D01*
X124523809Y-102354819D02*
X124523809Y-101354819D01*
X124523809Y-101354819D02*
X124428571Y-101497676D01*
X124428571Y-101497676D02*
X124333333Y-101592914D01*
X124333333Y-101592914D02*
X124238095Y-101640533D01*
X135991905Y-95494819D02*
X135991905Y-94494819D01*
X135991905Y-94494819D02*
X136230000Y-94494819D01*
X136230000Y-94494819D02*
X136372857Y-94542438D01*
X136372857Y-94542438D02*
X136468095Y-94637676D01*
X136468095Y-94637676D02*
X136515714Y-94732914D01*
X136515714Y-94732914D02*
X136563333Y-94923390D01*
X136563333Y-94923390D02*
X136563333Y-95066247D01*
X136563333Y-95066247D02*
X136515714Y-95256723D01*
X136515714Y-95256723D02*
X136468095Y-95351961D01*
X136468095Y-95351961D02*
X136372857Y-95447200D01*
X136372857Y-95447200D02*
X136230000Y-95494819D01*
X136230000Y-95494819D02*
X135991905Y-95494819D01*
X137515714Y-95494819D02*
X136944286Y-95494819D01*
X137230000Y-95494819D02*
X137230000Y-94494819D01*
X137230000Y-94494819D02*
X137134762Y-94637676D01*
X137134762Y-94637676D02*
X137039524Y-94732914D01*
X137039524Y-94732914D02*
X136944286Y-94780533D01*
X115333333Y-95739819D02*
X115000000Y-95263628D01*
X114761905Y-95739819D02*
X114761905Y-94739819D01*
X114761905Y-94739819D02*
X115142857Y-94739819D01*
X115142857Y-94739819D02*
X115238095Y-94787438D01*
X115238095Y-94787438D02*
X115285714Y-94835057D01*
X115285714Y-94835057D02*
X115333333Y-94930295D01*
X115333333Y-94930295D02*
X115333333Y-95073152D01*
X115333333Y-95073152D02*
X115285714Y-95168390D01*
X115285714Y-95168390D02*
X115238095Y-95216009D01*
X115238095Y-95216009D02*
X115142857Y-95263628D01*
X115142857Y-95263628D02*
X114761905Y-95263628D01*
X116285714Y-95739819D02*
X115714286Y-95739819D01*
X116000000Y-95739819D02*
X116000000Y-94739819D01*
X116000000Y-94739819D02*
X115904762Y-94882676D01*
X115904762Y-94882676D02*
X115809524Y-94977914D01*
X115809524Y-94977914D02*
X115714286Y-95025533D01*
X104666666Y-91834819D02*
X104666666Y-92549104D01*
X104666666Y-92549104D02*
X104619047Y-92691961D01*
X104619047Y-92691961D02*
X104523809Y-92787200D01*
X104523809Y-92787200D02*
X104380952Y-92834819D01*
X104380952Y-92834819D02*
X104285714Y-92834819D01*
X105666666Y-92834819D02*
X105095238Y-92834819D01*
X105380952Y-92834819D02*
X105380952Y-91834819D01*
X105380952Y-91834819D02*
X105285714Y-91977676D01*
X105285714Y-91977676D02*
X105190476Y-92072914D01*
X105190476Y-92072914D02*
X105095238Y-92120533D01*
X130833333Y-97804819D02*
X130500000Y-97328628D01*
X130261905Y-97804819D02*
X130261905Y-96804819D01*
X130261905Y-96804819D02*
X130642857Y-96804819D01*
X130642857Y-96804819D02*
X130738095Y-96852438D01*
X130738095Y-96852438D02*
X130785714Y-96900057D01*
X130785714Y-96900057D02*
X130833333Y-96995295D01*
X130833333Y-96995295D02*
X130833333Y-97138152D01*
X130833333Y-97138152D02*
X130785714Y-97233390D01*
X130785714Y-97233390D02*
X130738095Y-97281009D01*
X130738095Y-97281009D02*
X130642857Y-97328628D01*
X130642857Y-97328628D02*
X130261905Y-97328628D01*
X131166667Y-96804819D02*
X131785714Y-96804819D01*
X131785714Y-96804819D02*
X131452381Y-97185771D01*
X131452381Y-97185771D02*
X131595238Y-97185771D01*
X131595238Y-97185771D02*
X131690476Y-97233390D01*
X131690476Y-97233390D02*
X131738095Y-97281009D01*
X131738095Y-97281009D02*
X131785714Y-97376247D01*
X131785714Y-97376247D02*
X131785714Y-97614342D01*
X131785714Y-97614342D02*
X131738095Y-97709580D01*
X131738095Y-97709580D02*
X131690476Y-97757200D01*
X131690476Y-97757200D02*
X131595238Y-97804819D01*
X131595238Y-97804819D02*
X131309524Y-97804819D01*
X131309524Y-97804819D02*
X131214286Y-97757200D01*
X131214286Y-97757200D02*
X131166667Y-97709580D01*
X117604819Y-98666666D02*
X117128628Y-98999999D01*
X117604819Y-99238094D02*
X116604819Y-99238094D01*
X116604819Y-99238094D02*
X116604819Y-98857142D01*
X116604819Y-98857142D02*
X116652438Y-98761904D01*
X116652438Y-98761904D02*
X116700057Y-98714285D01*
X116700057Y-98714285D02*
X116795295Y-98666666D01*
X116795295Y-98666666D02*
X116938152Y-98666666D01*
X116938152Y-98666666D02*
X117033390Y-98714285D01*
X117033390Y-98714285D02*
X117081009Y-98761904D01*
X117081009Y-98761904D02*
X117128628Y-98857142D01*
X117128628Y-98857142D02*
X117128628Y-99238094D01*
X116700057Y-98285713D02*
X116652438Y-98238094D01*
X116652438Y-98238094D02*
X116604819Y-98142856D01*
X116604819Y-98142856D02*
X116604819Y-97904761D01*
X116604819Y-97904761D02*
X116652438Y-97809523D01*
X116652438Y-97809523D02*
X116700057Y-97761904D01*
X116700057Y-97761904D02*
X116795295Y-97714285D01*
X116795295Y-97714285D02*
X116890533Y-97714285D01*
X116890533Y-97714285D02*
X117033390Y-97761904D01*
X117033390Y-97761904D02*
X117604819Y-98333332D01*
X117604819Y-98333332D02*
X117604819Y-97714285D01*
X117539580Y-104666666D02*
X117587200Y-104714285D01*
X117587200Y-104714285D02*
X117634819Y-104857142D01*
X117634819Y-104857142D02*
X117634819Y-104952380D01*
X117634819Y-104952380D02*
X117587200Y-105095237D01*
X117587200Y-105095237D02*
X117491961Y-105190475D01*
X117491961Y-105190475D02*
X117396723Y-105238094D01*
X117396723Y-105238094D02*
X117206247Y-105285713D01*
X117206247Y-105285713D02*
X117063390Y-105285713D01*
X117063390Y-105285713D02*
X116872914Y-105238094D01*
X116872914Y-105238094D02*
X116777676Y-105190475D01*
X116777676Y-105190475D02*
X116682438Y-105095237D01*
X116682438Y-105095237D02*
X116634819Y-104952380D01*
X116634819Y-104952380D02*
X116634819Y-104857142D01*
X116634819Y-104857142D02*
X116682438Y-104714285D01*
X116682438Y-104714285D02*
X116730057Y-104666666D01*
X117634819Y-103714285D02*
X117634819Y-104285713D01*
X117634819Y-103999999D02*
X116634819Y-103999999D01*
X116634819Y-103999999D02*
X116777676Y-104095237D01*
X116777676Y-104095237D02*
X116872914Y-104190475D01*
X116872914Y-104190475D02*
X116920533Y-104285713D01*
%TO.C,C2*%
D11*
X126738748Y-104235000D02*
X127261252Y-104235000D01*
X126738748Y-102765000D02*
X127261252Y-102765000D01*
%TO.C,U1*%
X126060000Y-101060000D02*
X121940000Y-101060000D01*
X126060000Y-100965000D02*
X126060000Y-101060000D01*
X126060000Y-95940000D02*
X126060000Y-96035000D01*
X121940000Y-101060000D02*
X121940000Y-100965000D01*
X121940000Y-96035000D02*
X121940000Y-95940000D01*
X121940000Y-95940000D02*
X126060000Y-95940000D01*
X126600000Y-100970000D02*
X126840000Y-101300000D01*
X126360000Y-101300000D01*
X126600000Y-100970000D01*
G36*
X126840000Y-101300000D02*
G01*
X126360000Y-101300000D01*
X126600000Y-100970000D01*
X126840000Y-101300000D01*
G37*
%TO.C,D1*%
X139230000Y-99000000D02*
G75*
G02*
X134230000Y-99000000I-2500000J0D01*
G01*
X134230000Y-99000000D02*
G75*
G02*
X139230000Y-99000000I2500000J0D01*
G01*
X139720000Y-99000000D02*
G75*
G02*
X134170000Y-100544830I-2990000J0D01*
G01*
X134170000Y-97455170D02*
G75*
G02*
X139720000Y-99000000I2560000J-1544830D01*
G01*
X134170000Y-97455000D02*
X134170000Y-100545000D01*
%TO.C,R1*%
X115727064Y-92765000D02*
X115272936Y-92765000D01*
X115727064Y-94235000D02*
X115272936Y-94235000D01*
%TO.C,J1*%
X102500000Y-102620000D02*
X102940000Y-103230000D01*
X102060000Y-103230000D01*
X102500000Y-102620000D01*
G36*
X102940000Y-103230000D02*
G01*
X102060000Y-103230000D01*
X102500000Y-102620000D01*
X102940000Y-103230000D01*
G37*
X108500000Y-95300000D02*
G75*
G02*
X106500000Y-95300000I-1000000J0D01*
G01*
X106500000Y-95300000D02*
G75*
G02*
X108500000Y-95300000I1000000J0D01*
G01*
X103500000Y-95300000D02*
G75*
G02*
X101500000Y-95300000I-1000000J0D01*
G01*
X101500000Y-95300000D02*
G75*
G02*
X103500000Y-95300000I1000000J0D01*
G01*
X110120000Y-102620000D02*
X102800000Y-102620000D01*
X110120000Y-93380000D02*
X110120000Y-102620000D01*
X102200000Y-102620000D02*
X99880000Y-102620000D01*
X99880000Y-102620000D02*
X99880000Y-93380000D01*
X99880000Y-100500000D02*
X110120000Y-100500000D01*
X99880000Y-93380000D02*
X110120000Y-93380000D01*
%TO.C,R3*%
X130772936Y-98265000D02*
X131227064Y-98265000D01*
X130772936Y-99735000D02*
X131227064Y-99735000D01*
%TO.C,R2*%
X116235000Y-98272936D02*
X116235000Y-98727064D01*
X114765000Y-98272936D02*
X114765000Y-98727064D01*
%TO.C,C1*%
X116235000Y-104238748D02*
X116235000Y-104761252D01*
X114765000Y-104238748D02*
X114765000Y-104761252D01*
%TD*%
M02*
